<svg xmlns="http://www.w3.org/2000/svg" viewBox="0 0 64 64">
  <defs>
    <linearGradient id="bg" x1="0%" y1="0%" x2="100%" y2="100%">
      <stop offset="0%" style="stop-color:#0A0A0F"/>
      <stop offset="100%" style="stop-color:#1E1E24"/>
    </linearGradient>
    <linearGradient id="flame" x1="0%" y1="100%" x2="100%" y2="0%">
      <stop offset="0%" style="stop-color:#8B0000"/>
      <stop offset="40%" style="stop-color:#C41E3A"/>
      <stop offset="100%" style="stop-color:#D4AF37"/>
    </linearGradient>
    <linearGradient id="inner" x1="0%" y1="100%" x2="100%" y2="0%">
      <stop offset="0%" style="stop-color:#C41E3A"/>
      <stop offset="100%" style="stop-color:#F0D060"/>
    </linearGradient>
  </defs>
  <!-- Background circle -->
  <circle cx="32" cy="32" r="30" fill="url(#bg)" stroke="#D4AF37" stroke-width="2" stroke-opacity="0.5"/>
  <!-- Outer flame -->
  <path d="M32 8 C32 8 18 22 18 36 C18 44 24 52 32 52 C40 52 46 44 46 36 C46 22 32 8 32 8Z" fill="url(#flame)" opacity="0.9"/>
  <!-- Inner flame -->
  <path d="M32 20 C32 20 24 30 24 38 C24 43 27.5 48 32 48 C36.5 48 40 43 40 38 C40 30 32 20 32 20Z" fill="url(#inner)" opacity="0.8"/>
  <!-- Core glow -->
  <ellipse cx="32" cy="42" rx="5" ry="4" fill="#F0D060" opacity="0.6"/>
  <!-- Gold ring accent -->
  <circle cx="32" cy="32" r="30" fill="none" stroke="#D4AF37" stroke-width="1.5" stroke-opacity="0.3"/>
</svg>
